<mxfile host="app.diagrams.net" agent="Mozilla/5.0 (Macintosh; Intel Mac OS X 10_15_7) AppleWebKit/537.36 (KHTML, like Gecko) Chrome/138.0.0.0 Safari/537.36" version="26.2.14" pages="3">
  <diagram name="Page-1" id="lHjZKfOE-zh-q63S4vD_">
    <mxGraphModel dx="1146" dy="1150" grid="1" gridSize="10" guides="1" tooltips="1" connect="1" arrows="1" fold="1" page="1" pageScale="1" pageWidth="850" pageHeight="1100" math="0" shadow="0">
      <root>
        <mxCell id="0" />
        <mxCell id="1" parent="0" />
        <mxCell id="DBIdx-6xCHj_AeUs6Mxb-13" value="Hub or Folder" style="rounded=0;whiteSpace=wrap;html=1;verticalAlign=top;fillColor=#ffe6cc;strokeColor=#d79b00;" vertex="1" parent="1">
          <mxGeometry x="10" y="90" width="710" height="190" as="geometry" />
        </mxCell>
        <mxCell id="DBIdx-6xCHj_AeUs6Mxb-9" style="edgeStyle=orthogonalEdgeStyle;rounded=0;orthogonalLoop=1;jettySize=auto;html=1;" edge="1" parent="1" source="DBIdx-6xCHj_AeUs6Mxb-6" target="DBIdx-6xCHj_AeUs6Mxb-3">
          <mxGeometry relative="1" as="geometry" />
        </mxCell>
        <mxCell id="DBIdx-6xCHj_AeUs6Mxb-6" value="Artifacts" style="rounded=0;whiteSpace=wrap;html=1;verticalAlign=top;fillColor=#dae8fc;strokeColor=#6c8ebf;" vertex="1" parent="1">
          <mxGeometry x="85" y="130" width="560" height="120" as="geometry" />
        </mxCell>
        <mxCell id="DBIdx-6xCHj_AeUs6Mxb-1" value="Dataset" style="rounded=0;whiteSpace=wrap;html=1;" vertex="1" parent="1">
          <mxGeometry x="140" y="170" width="120" height="60" as="geometry" />
        </mxCell>
        <mxCell id="DBIdx-6xCHj_AeUs6Mxb-2" value="Model" style="rounded=0;whiteSpace=wrap;html=1;" vertex="1" parent="1">
          <mxGeometry x="305" y="170" width="120" height="60" as="geometry" />
        </mxCell>
        <mxCell id="DBIdx-6xCHj_AeUs6Mxb-12" value="" style="edgeStyle=orthogonalEdgeStyle;rounded=0;orthogonalLoop=1;jettySize=auto;html=1;" edge="1" parent="1" source="DBIdx-6xCHj_AeUs6Mxb-3" target="DBIdx-6xCHj_AeUs6Mxb-10">
          <mxGeometry relative="1" as="geometry" />
        </mxCell>
        <mxCell id="DBIdx-6xCHj_AeUs6Mxb-3" value="Signing Service" style="rounded=0;whiteSpace=wrap;html=1;fillColor=#d5e8d4;strokeColor=#82b366;" vertex="1" parent="1">
          <mxGeometry x="305" y="330" width="120" height="60" as="geometry" />
        </mxCell>
        <mxCell id="DBIdx-6xCHj_AeUs6Mxb-4" value="Metadata" style="rounded=0;whiteSpace=wrap;html=1;strokeColor=default;align=center;verticalAlign=middle;fontFamily=Helvetica;fontSize=12;fontColor=default;fillColor=default;" vertex="1" parent="1">
          <mxGeometry x="470" y="170" width="120" height="60" as="geometry" />
        </mxCell>
        <mxCell id="DBIdx-6xCHj_AeUs6Mxb-8" value="Transfer&lt;div&gt;Certificate&lt;/div&gt;" style="edgeStyle=orthogonalEdgeStyle;rounded=0;orthogonalLoop=1;jettySize=auto;html=1;" edge="1" parent="1" source="DBIdx-6xCHj_AeUs6Mxb-7" target="DBIdx-6xCHj_AeUs6Mxb-3">
          <mxGeometry relative="1" as="geometry" />
        </mxCell>
        <mxCell id="DBIdx-6xCHj_AeUs6Mxb-7" value="Secure Cert Store" style="shape=cylinder3;whiteSpace=wrap;html=1;boundedLbl=1;backgroundOutline=1;size=15;" vertex="1" parent="1">
          <mxGeometry x="85" y="320" width="80" height="80" as="geometry" />
        </mxCell>
        <mxCell id="DBIdx-6xCHj_AeUs6Mxb-10" value="Output" style="shape=cylinder3;whiteSpace=wrap;html=1;boundedLbl=1;backgroundOutline=1;size=15;" vertex="1" parent="1">
          <mxGeometry x="325" y="430" width="80" height="80" as="geometry" />
        </mxCell>
      </root>
    </mxGraphModel>
  </diagram>
  <diagram id="gBATh2u5Pj2PIVavHPST" name="Page-2">
    <mxGraphModel dx="1146" dy="1150" grid="1" gridSize="10" guides="1" tooltips="1" connect="1" arrows="1" fold="1" page="1" pageScale="1" pageWidth="850" pageHeight="1100" math="0" shadow="0">
      <root>
        <mxCell id="0" />
        <mxCell id="1" parent="0" />
        <mxCell id="5A9qN5svTpLRhIkaRY0r-3" value="" style="edgeStyle=orthogonalEdgeStyle;rounded=0;orthogonalLoop=1;jettySize=auto;html=1;" edge="1" parent="1" source="5A9qN5svTpLRhIkaRY0r-1" target="5A9qN5svTpLRhIkaRY0r-2">
          <mxGeometry relative="1" as="geometry" />
        </mxCell>
        <mxCell id="5A9qN5svTpLRhIkaRY0r-1" value="Input&lt;div&gt;(Folder/REST/CLI)&lt;/div&gt;&lt;div&gt;&lt;br&gt;&lt;/div&gt;&lt;div&gt;[Model, Dataset, Metadata]&lt;/div&gt;" style="rounded=0;whiteSpace=wrap;html=1;" vertex="1" parent="1">
          <mxGeometry x="120" y="270" width="190" height="110" as="geometry" />
        </mxCell>
        <mxCell id="5A9qN5svTpLRhIkaRY0r-5" value="" style="edgeStyle=orthogonalEdgeStyle;rounded=0;orthogonalLoop=1;jettySize=auto;html=1;" edge="1" parent="1" source="5A9qN5svTpLRhIkaRY0r-2" target="5A9qN5svTpLRhIkaRY0r-4">
          <mxGeometry relative="1" as="geometry" />
        </mxCell>
        <mxCell id="5A9qN5svTpLRhIkaRY0r-2" value="Signing Service&lt;div&gt;&lt;br&gt;&lt;/div&gt;&lt;div&gt;&lt;div&gt;1. Hash model + dataset&lt;/div&gt;&lt;div&gt;2. Load keys from KeyStore&lt;/div&gt;&lt;div&gt;3. Generate signature&lt;/div&gt;&lt;div&gt;4. Attach public key + meta&lt;/div&gt;&lt;/div&gt;" style="whiteSpace=wrap;html=1;rounded=0;" vertex="1" parent="1">
          <mxGeometry x="390" y="272.5" width="195" height="105" as="geometry" />
        </mxCell>
        <mxCell id="5A9qN5svTpLRhIkaRY0r-4" value="Output Bundle&amp;nbsp;&lt;div&gt;(.zip)&lt;/div&gt;" style="whiteSpace=wrap;html=1;rounded=0;" vertex="1" parent="1">
          <mxGeometry x="670" y="272.5" width="195" height="105" as="geometry" />
        </mxCell>
      </root>
    </mxGraphModel>
  </diagram>
  <diagram id="jxSmd8mhOVsMAKIabr9P" name="Page-3">
    <mxGraphModel dx="1996" dy="1150" grid="1" gridSize="10" guides="1" tooltips="1" connect="1" arrows="1" fold="1" page="1" pageScale="1" pageWidth="850" pageHeight="1100" math="0" shadow="0">
      <root>
        <mxCell id="0" />
        <mxCell id="1" parent="0" />
        <mxCell id="y8knkoZISpuH4EOaY4Iv-5" value="" style="group" vertex="1" connectable="0" parent="1">
          <mxGeometry x="150" y="120" width="120" height="510" as="geometry" />
        </mxCell>
        <mxCell id="y8knkoZISpuH4EOaY4Iv-1" value="" style="endArrow=none;dashed=1;html=1;dashPattern=1 3;strokeWidth=2;rounded=0;" edge="1" parent="y8knkoZISpuH4EOaY4Iv-5" target="y8knkoZISpuH4EOaY4Iv-2">
          <mxGeometry width="50" height="50" relative="1" as="geometry">
            <mxPoint x="60" y="480" as="sourcePoint" />
            <mxPoint x="60" y="80" as="targetPoint" />
          </mxGeometry>
        </mxCell>
        <mxCell id="y8knkoZISpuH4EOaY4Iv-2" value="Input" style="rounded=1;whiteSpace=wrap;html=1;" vertex="1" parent="y8knkoZISpuH4EOaY4Iv-5">
          <mxGeometry width="120" height="30" as="geometry" />
        </mxCell>
        <mxCell id="y8knkoZISpuH4EOaY4Iv-3" value="Input" style="rounded=1;whiteSpace=wrap;html=1;" vertex="1" parent="y8knkoZISpuH4EOaY4Iv-5">
          <mxGeometry y="480" width="120" height="30" as="geometry" />
        </mxCell>
        <mxCell id="y8knkoZISpuH4EOaY4Iv-42" value="(1) Request Signature Verification" style="endArrow=classic;html=1;rounded=0;" edge="1" parent="y8knkoZISpuH4EOaY4Iv-5">
          <mxGeometry x="-0.7872" width="50" height="50" relative="1" as="geometry">
            <mxPoint x="-140" y="420" as="sourcePoint" />
            <mxPoint x="800" y="420" as="targetPoint" />
            <mxPoint as="offset" />
          </mxGeometry>
        </mxCell>
        <mxCell id="y8knkoZISpuH4EOaY4Iv-43" value="(2) Response Signature Status" style="endArrow=classic;html=1;rounded=0;" edge="1" parent="y8knkoZISpuH4EOaY4Iv-5">
          <mxGeometry x="-0.7872" width="50" height="50" relative="1" as="geometry">
            <mxPoint x="800" y="450" as="sourcePoint" />
            <mxPoint x="-140" y="450" as="targetPoint" />
            <mxPoint as="offset" />
          </mxGeometry>
        </mxCell>
        <mxCell id="y8knkoZISpuH4EOaY4Iv-6" value="" style="group" vertex="1" connectable="0" parent="1">
          <mxGeometry x="330" y="120" width="120" height="510" as="geometry" />
        </mxCell>
        <mxCell id="y8knkoZISpuH4EOaY4Iv-7" value="" style="endArrow=none;dashed=1;html=1;dashPattern=1 3;strokeWidth=2;rounded=0;" edge="1" parent="y8knkoZISpuH4EOaY4Iv-6" target="y8knkoZISpuH4EOaY4Iv-8">
          <mxGeometry width="50" height="50" relative="1" as="geometry">
            <mxPoint x="60" y="480" as="sourcePoint" />
            <mxPoint x="60" y="80" as="targetPoint" />
          </mxGeometry>
        </mxCell>
        <mxCell id="y8knkoZISpuH4EOaY4Iv-8" value="Signing Service" style="rounded=1;whiteSpace=wrap;html=1;" vertex="1" parent="y8knkoZISpuH4EOaY4Iv-6">
          <mxGeometry width="120" height="30" as="geometry" />
        </mxCell>
        <mxCell id="y8knkoZISpuH4EOaY4Iv-9" value="Signing Service" style="rounded=1;whiteSpace=wrap;html=1;" vertex="1" parent="y8knkoZISpuH4EOaY4Iv-6">
          <mxGeometry y="480" width="120" height="30" as="geometry" />
        </mxCell>
        <mxCell id="y8knkoZISpuH4EOaY4Iv-35" value="(2) Request Artifacts" style="endArrow=classic;html=1;rounded=0;" edge="1" parent="y8knkoZISpuH4EOaY4Iv-6">
          <mxGeometry width="50" height="50" relative="1" as="geometry">
            <mxPoint x="60" y="120" as="sourcePoint" />
            <mxPoint x="-120" y="120" as="targetPoint" />
          </mxGeometry>
        </mxCell>
        <mxCell id="y8knkoZISpuH4EOaY4Iv-36" value="(3) Response Artifacts" style="endArrow=classic;html=1;rounded=0;" edge="1" parent="y8knkoZISpuH4EOaY4Iv-6">
          <mxGeometry width="50" height="50" relative="1" as="geometry">
            <mxPoint x="-120" y="150" as="sourcePoint" />
            <mxPoint x="60" y="150" as="targetPoint" />
            <mxPoint as="offset" />
          </mxGeometry>
        </mxCell>
        <mxCell id="y8knkoZISpuH4EOaY4Iv-37" value="(4) Request Keys" style="endArrow=classic;html=1;rounded=0;" edge="1" parent="y8knkoZISpuH4EOaY4Iv-6">
          <mxGeometry width="50" height="50" relative="1" as="geometry">
            <mxPoint x="60" y="180" as="sourcePoint" />
            <mxPoint x="240" y="180" as="targetPoint" />
            <mxPoint as="offset" />
          </mxGeometry>
        </mxCell>
        <mxCell id="y8knkoZISpuH4EOaY4Iv-39" value="(6) Sign Artifacts" style="endArrow=classic;html=1;rounded=0;edgeStyle=orthogonalEdgeStyle;" edge="1" parent="y8knkoZISpuH4EOaY4Iv-6">
          <mxGeometry width="50" height="50" relative="1" as="geometry">
            <mxPoint x="60" y="250" as="sourcePoint" />
            <mxPoint x="60" y="300" as="targetPoint" />
            <mxPoint as="offset" />
            <Array as="points">
              <mxPoint x="130" y="250" />
              <mxPoint x="130" y="300" />
              <mxPoint x="60" y="300" />
            </Array>
          </mxGeometry>
        </mxCell>
        <mxCell id="y8knkoZISpuH4EOaY4Iv-40" value="(7) Create Bundle" style="endArrow=classic;html=1;rounded=0;" edge="1" parent="y8knkoZISpuH4EOaY4Iv-6">
          <mxGeometry x="0.5" width="50" height="50" relative="1" as="geometry">
            <mxPoint x="60" y="330" as="sourcePoint" />
            <mxPoint x="420" y="330" as="targetPoint" />
            <mxPoint as="offset" />
          </mxGeometry>
        </mxCell>
        <mxCell id="y8knkoZISpuH4EOaY4Iv-10" value="" style="group" vertex="1" connectable="0" parent="1">
          <mxGeometry x="510" y="120" width="120" height="510" as="geometry" />
        </mxCell>
        <mxCell id="y8knkoZISpuH4EOaY4Iv-11" value="" style="endArrow=none;dashed=1;html=1;dashPattern=1 3;strokeWidth=2;rounded=0;" edge="1" parent="y8knkoZISpuH4EOaY4Iv-10" target="y8knkoZISpuH4EOaY4Iv-12">
          <mxGeometry width="50" height="50" relative="1" as="geometry">
            <mxPoint x="60" y="480" as="sourcePoint" />
            <mxPoint x="60" y="80" as="targetPoint" />
          </mxGeometry>
        </mxCell>
        <mxCell id="y8knkoZISpuH4EOaY4Iv-12" value="Keystore" style="rounded=1;whiteSpace=wrap;html=1;" vertex="1" parent="y8knkoZISpuH4EOaY4Iv-10">
          <mxGeometry width="120" height="30" as="geometry" />
        </mxCell>
        <mxCell id="y8knkoZISpuH4EOaY4Iv-13" value="Keystore" style="rounded=1;whiteSpace=wrap;html=1;" vertex="1" parent="y8knkoZISpuH4EOaY4Iv-10">
          <mxGeometry y="480" width="120" height="30" as="geometry" />
        </mxCell>
        <mxCell id="y8knkoZISpuH4EOaY4Iv-38" value="(5) Response Keys" style="endArrow=classic;html=1;rounded=0;" edge="1" parent="y8knkoZISpuH4EOaY4Iv-10">
          <mxGeometry width="50" height="50" relative="1" as="geometry">
            <mxPoint x="60" y="210" as="sourcePoint" />
            <mxPoint x="-120" y="210" as="targetPoint" />
          </mxGeometry>
        </mxCell>
        <mxCell id="y8knkoZISpuH4EOaY4Iv-41" value="(8) Response Signed Bundle" style="endArrow=classic;html=1;rounded=0;" edge="1" parent="y8knkoZISpuH4EOaY4Iv-10">
          <mxGeometry x="0.7297" width="50" height="50" relative="1" as="geometry">
            <mxPoint x="240" y="380" as="sourcePoint" />
            <mxPoint x="-500" y="380" as="targetPoint" />
            <mxPoint as="offset" />
          </mxGeometry>
        </mxCell>
        <mxCell id="y8knkoZISpuH4EOaY4Iv-14" value="" style="group" vertex="1" connectable="0" parent="1">
          <mxGeometry x="690" y="120" width="120" height="510" as="geometry" />
        </mxCell>
        <mxCell id="y8knkoZISpuH4EOaY4Iv-15" value="" style="endArrow=none;dashed=1;html=1;dashPattern=1 3;strokeWidth=2;rounded=0;" edge="1" parent="y8knkoZISpuH4EOaY4Iv-14" target="y8knkoZISpuH4EOaY4Iv-16">
          <mxGeometry width="50" height="50" relative="1" as="geometry">
            <mxPoint x="60" y="480" as="sourcePoint" />
            <mxPoint x="60" y="80" as="targetPoint" />
          </mxGeometry>
        </mxCell>
        <mxCell id="y8knkoZISpuH4EOaY4Iv-16" value="Output" style="rounded=1;whiteSpace=wrap;html=1;" vertex="1" parent="y8knkoZISpuH4EOaY4Iv-14">
          <mxGeometry width="120" height="30" as="geometry" />
        </mxCell>
        <mxCell id="y8knkoZISpuH4EOaY4Iv-17" value="Output&lt;span style=&quot;color: rgba(0, 0, 0, 0); font-family: monospace; font-size: 0px; text-align: start; text-wrap-mode: nowrap;&quot;&gt;%3CmxGraphModel%3E%3Croot%3E%3CmxCell%20id%3D%220%22%2F%3E%3CmxCell%20id%3D%221%22%20parent%3D%220%22%2F%3E%3CmxCell%20id%3D%222%22%20value%3D%22%22%20style%3D%22group%22%20vertex%3D%221%22%20connectable%3D%220%22%20parent%3D%221%22%3E%3CmxGeometry%20x%3D%22150%22%20y%3D%22120%22%20width%3D%22120%22%20height%3D%22510%22%20as%3D%22geometry%22%2F%3E%3C%2FmxCell%3E%3CmxCell%20id%3D%223%22%20value%3D%22%22%20style%3D%22endArrow%3Dnone%3Bdashed%3D1%3Bhtml%3D1%3BdashPattern%3D1%203%3BstrokeWidth%3D2%3Brounded%3D0%3B%22%20edge%3D%221%22%20parent%3D%222%22%20target%3D%224%22%3E%3CmxGeometry%20width%3D%2250%22%20height%3D%2250%22%20relative%3D%221%22%20as%3D%22geometry%22%3E%3CmxPoint%20x%3D%2260%22%20y%3D%22480%22%20as%3D%22sourcePoint%22%2F%3E%3CmxPoint%20x%3D%2260%22%20y%3D%2280%22%20as%3D%22targetPoint%22%2F%3E%3C%2FmxGeometry%3E%3C%2FmxCell%3E%3CmxCell%20id%3D%224%22%20value%3D%22Input%22%20style%3D%22rounded%3D1%3BwhiteSpace%3Dwrap%3Bhtml%3D1%3B%22%20vertex%3D%221%22%20parent%3D%222%22%3E%3CmxGeometry%20width%3D%22120%22%20height%3D%2230%22%20as%3D%22geometry%22%2F%3E%3C%2FmxCell%3E%3CmxCell%20id%3D%225%22%20value%3D%22Input%22%20style%3D%22rounded%3D1%3BwhiteSpace%3Dwrap%3Bhtml%3D1%3B%22%20vertex%3D%221%22%20parent%3D%222%22%3E%3CmxGeometry%20y%3D%22480%22%20width%3D%22120%22%20height%3D%2230%22%20as%3D%22geometry%22%2F%3E%3C%2FmxCell%3E%3C%2Froot%3E%3C%2FmxGraphModel%3E&lt;/span&gt;" style="rounded=1;whiteSpace=wrap;html=1;" vertex="1" parent="y8knkoZISpuH4EOaY4Iv-14">
          <mxGeometry y="480" width="120" height="30" as="geometry" />
        </mxCell>
        <mxCell id="y8knkoZISpuH4EOaY4Iv-18" value="" style="group" vertex="1" connectable="0" parent="1">
          <mxGeometry x="890" y="120" width="120" height="510" as="geometry" />
        </mxCell>
        <mxCell id="y8knkoZISpuH4EOaY4Iv-19" value="" style="endArrow=none;dashed=1;html=1;dashPattern=1 3;strokeWidth=2;rounded=0;" edge="1" parent="y8knkoZISpuH4EOaY4Iv-18" target="y8knkoZISpuH4EOaY4Iv-20">
          <mxGeometry width="50" height="50" relative="1" as="geometry">
            <mxPoint x="60" y="480" as="sourcePoint" />
            <mxPoint x="60" y="80" as="targetPoint" />
          </mxGeometry>
        </mxCell>
        <mxCell id="y8knkoZISpuH4EOaY4Iv-20" value="Verifier" style="rounded=1;whiteSpace=wrap;html=1;" vertex="1" parent="y8knkoZISpuH4EOaY4Iv-18">
          <mxGeometry width="120" height="30" as="geometry" />
        </mxCell>
        <mxCell id="y8knkoZISpuH4EOaY4Iv-21" value="Verifier" style="rounded=1;whiteSpace=wrap;html=1;" vertex="1" parent="y8knkoZISpuH4EOaY4Iv-18">
          <mxGeometry y="480" width="120" height="30" as="geometry" />
        </mxCell>
        <mxCell id="y8knkoZISpuH4EOaY4Iv-22" value="User" style="shape=umlActor;verticalLabelPosition=bottom;verticalAlign=top;html=1;outlineConnect=0;" vertex="1" parent="1">
          <mxGeometry x="-5" y="70" width="30" height="60" as="geometry" />
        </mxCell>
        <mxCell id="y8knkoZISpuH4EOaY4Iv-31" value="User" style="rounded=1;whiteSpace=wrap;html=1;" vertex="1" parent="1">
          <mxGeometry x="-50" y="600" width="120" height="30" as="geometry" />
        </mxCell>
        <mxCell id="y8knkoZISpuH4EOaY4Iv-29" value="" style="endArrow=none;dashed=1;html=1;dashPattern=1 3;strokeWidth=2;rounded=0;" edge="1" parent="1">
          <mxGeometry width="50" height="50" relative="1" as="geometry">
            <mxPoint x="10" y="600" as="sourcePoint" />
            <mxPoint x="10" y="150" as="targetPoint" />
          </mxGeometry>
        </mxCell>
        <mxCell id="y8knkoZISpuH4EOaY4Iv-33" value="(1) Request Signing" style="endArrow=classic;html=1;rounded=0;" edge="1" parent="1">
          <mxGeometry x="-0.4737" width="50" height="50" relative="1" as="geometry">
            <mxPoint x="10" y="210" as="sourcePoint" />
            <mxPoint x="390" y="210" as="targetPoint" />
            <mxPoint as="offset" />
          </mxGeometry>
        </mxCell>
        <mxCell id="y8knkoZISpuH4EOaY4Iv-46" value="" style="edgeStyle=orthogonalEdgeStyle;rounded=0;orthogonalLoop=1;jettySize=auto;html=1;entryX=1;entryY=0.5;entryDx=0;entryDy=0;" edge="1" parent="1" source="y8knkoZISpuH4EOaY4Iv-44" target="y8knkoZISpuH4EOaY4Iv-47">
          <mxGeometry relative="1" as="geometry">
            <mxPoint x="-115" y="355" as="targetPoint" />
          </mxGeometry>
        </mxCell>
        <mxCell id="y8knkoZISpuH4EOaY4Iv-44" value="" style="shape=curlyBracket;whiteSpace=wrap;html=1;rounded=1;labelPosition=left;verticalLabelPosition=middle;align=right;verticalAlign=middle;" vertex="1" parent="1">
          <mxGeometry x="-70" y="210" width="50" height="310" as="geometry" />
        </mxCell>
        <mxCell id="y8knkoZISpuH4EOaY4Iv-47" value="Signing Process" style="text;html=1;align=center;verticalAlign=middle;whiteSpace=wrap;rounded=0;" vertex="1" parent="1">
          <mxGeometry x="-150" y="350" width="60" height="30" as="geometry" />
        </mxCell>
        <mxCell id="y8knkoZISpuH4EOaY4Iv-50" style="edgeStyle=orthogonalEdgeStyle;rounded=0;orthogonalLoop=1;jettySize=auto;html=1;" edge="1" parent="1" source="y8knkoZISpuH4EOaY4Iv-48" target="y8knkoZISpuH4EOaY4Iv-49">
          <mxGeometry relative="1" as="geometry" />
        </mxCell>
        <mxCell id="y8knkoZISpuH4EOaY4Iv-48" value="" style="shape=curlyBracket;whiteSpace=wrap;html=1;rounded=1;labelPosition=left;verticalLabelPosition=middle;align=right;verticalAlign=middle;" vertex="1" parent="1">
          <mxGeometry x="-70" y="530" width="50" height="50" as="geometry" />
        </mxCell>
        <mxCell id="y8knkoZISpuH4EOaY4Iv-49" value="Signature Verification Process" style="text;html=1;align=center;verticalAlign=middle;whiteSpace=wrap;rounded=0;" vertex="1" parent="1">
          <mxGeometry x="-150" y="540" width="60" height="30" as="geometry" />
        </mxCell>
      </root>
    </mxGraphModel>
  </diagram>
</mxfile>
